<svg xmlns="http://www.w3.org/2000/svg" xmlns:xlink="http://www.w3.org/1999/xlink" viewBox="0,0,256,256" width="26px" height="26px"><g fill="#0e2c04" fill-rule="nonzero" stroke="none" stroke-width="1" stroke-linecap="butt" stroke-linejoin="miter" stroke-miterlimit="10" stroke-dasharray="" stroke-dashoffset="0" font-family="none" font-weight="none" font-size="none" text-anchor="none" style="mix-blend-mode: normal"><g transform="scale(9.84615,9.84615)"><path d="M21.125,0h-16.25c-2.69141,0 -4.875,2.18359 -4.875,4.875v16.25c0,2.69141 2.18359,4.875 4.875,4.875h16.25c2.69141,0 4.875,-2.18359 4.875,-4.875v-16.25c0,-2.69141 -2.18359,-4.875 -4.875,-4.875zM8.03906,22.07031h-4.03906l-0.02344,-12.09375h4.03906zM5.91797,8.39453h-0.02344c-1.32031,0 -2.17187,-0.91016 -2.17187,-2.04297c0,-1.16016 0.87891,-2.03906 2.22266,-2.03906c1.34375,0 2.16797,0.87891 2.19531,2.03906c0,1.13281 -0.85547,2.04297 -2.22266,2.04297zM22.04297,22.07031h-4.07422v-6.57031c0,-1.58984 -0.42187,-2.67187 -1.84375,-2.67187c-1.08594,0 -1.67187,0.73047 -1.95312,1.4375c-0.10547,0.25391 -0.13281,0.60156 -0.13281,0.95703v6.84766h-4.09375l-0.02344,-12.09375h4.09375l0.02344,1.70703c0.52344,-0.80859 1.39453,-1.95312 3.48047,-1.95312c2.58594,0 4.51953,1.6875 4.51953,5.31641v7.02344z"></path></g></g></svg>