<svg xmlns="http://www.w3.org/2000/svg" xmlns:xlink="http://www.w3.org/1999/xlink" viewBox="0,0,256,256" width="24px" height="24px"><g fill="#a8e9ab" fill-rule="nonzero" stroke="none" stroke-width="1" stroke-linecap="butt" stroke-linejoin="miter" stroke-miterlimit="10" stroke-dasharray="" stroke-dashoffset="0" font-family="none" font-weight="none" font-size="none" text-anchor="none" style="mix-blend-mode: normal"><g transform="scale(10.66667,10.66667)"><path d="M19,3h-14c-1.105,0 -2,0.895 -2,2v14c0,1.105 0.895,2 2,2h14c1.105,0 2,-0.895 2,-2v-14c0,-1.105 -0.895,-2 -2,-2zM7.738,17v0c-0.697,0 -1.262,-0.565 -1.262,-1.262v-4.477c0.001,-0.696 0.566,-1.261 1.262,-1.261v0c0.697,0 1.262,0.565 1.262,1.262v4.477c0,0.696 -0.565,1.261 -1.262,1.261zM7.694,8.717c-0.771,0 -1.286,-0.514 -1.286,-1.2c0,-0.686 0.514,-1.2 1.371,-1.2c0.771,0 1.286,0.514 1.286,1.2c0,0.686 -0.514,1.2 -1.371,1.2zM16.779,17v0c-0.674,0 -1.221,-0.547 -1.221,-1.221v-2.605c0,-1.058 -0.651,-1.174 -0.895,-1.174c-0.244,0 -1.058,0.035 -1.058,1.174v2.605c0,0.674 -0.547,1.221 -1.221,1.221h-0.081c-0.674,0 -1.221,-0.547 -1.221,-1.221v-4.517c0,-0.697 0.565,-1.262 1.262,-1.262v0c0.697,0 1.262,0.565 1.262,1.262c0,0 0.282,-1.262 2.198,-1.262c1.219,0 2.196,0.977 2.196,3.174v2.605c0,0.674 -0.547,1.221 -1.221,1.221z"></path></g></g></svg>